<svg xmlns="http://www.w3.org/2000/svg" xmlns:xlink="http://www.w3.org/1999/xlink" xmlns:lucid="lucid" width="1352" height="1263.61"><g transform="translate(-304 -60)" lucid:page-tab-id="0_0"><path d="M920 120c0 22.1-44.77 40-100 40s-100-17.9-100-40 44.77-40 100-40 100 17.9 100 40z" stroke="#000" stroke-width="2" fill="#fff"/><use xlink:href="#a" transform="matrix(1,0,0,1,725,85) translate(60.77777777777777 40.333333333333336)"/><path d="M740 240h160v60H740z" stroke="#000" stroke-width="2" fill="#fff"/><use xlink:href="#b" transform="matrix(1,0,0,1,745,245) translate(5.629629629629619 30.333333333333336)"/><use xlink:href="#c" transform="matrix(1,0,0,1,745,245) translate(32.14814814814814 30.333333333333336)"/><use xlink:href="#d" transform="matrix(1,0,0,1,745,245) translate(62.51851851851852 30.333333333333336)"/><use xlink:href="#e" transform="matrix(1,0,0,1,745,245) translate(92.14814814814815 30.333333333333336)"/><path d="M820 161v59.5" stroke="#000" stroke-width="2" fill="none"/><path d="M820 160h1v1h-2v-1.02z"/><path d="M820 235.76l-4.64-14.26h9.28z" stroke="#000" stroke-width="2"/><path d="M920 420c0 22.1-44.77 40-100 40s-100-17.9-100-40 44.77-40 100-40 100 17.9 100 40z" stroke="#000" stroke-width="2" fill="#fff"/><use xlink:href="#f" transform="matrix(1,0,0,1,725,385) translate(74.07407407407408 40.333333333333336)"/><path d="M820 540l70 60-70 60-70-60z" stroke="#000" stroke-width="2" fill="#fff"/><use xlink:href="#g" transform="matrix(1,0,0,1,755,545) translate(44.44444444444444 60.333333333333336)"/><use xlink:href="#h" transform="matrix(1,0,0,1,755,545) translate(57.7037037037037 60.333333333333336)"/><use xlink:href="#i" transform="matrix(1,0,0,1,755,545) translate(79.70370370370371 60.333333333333336)"/><path d="M820 461v59.18" stroke="#000" stroke-width="2" fill="none"/><path d="M820 460h1v1h-2v-1.02z"/><path d="M820 535.45l-4.64-14.27h9.28z" stroke="#000" stroke-width="2"/><path d="M820 301v59.5" stroke="#000" stroke-width="2" fill="none"/><path d="M821 301h-2v-1h2z"/><path d="M820 375.76l-4.64-14.26h9.28z" stroke="#000" stroke-width="2"/><path d="M730 733h180v74H730z" stroke="#000" stroke-width="2" fill="#fff"/><use xlink:href="#j" transform="matrix(1,0,0,1,735,738) translate(4.370370370370367 37.333333333333336)"/><use xlink:href="#c" transform="matrix(1,0,0,1,735,738) translate(33.925925925925924 37.333333333333336)"/><use xlink:href="#k" transform="matrix(1,0,0,1,735,738) translate(64.2962962962963 37.333333333333336)"/><use xlink:href="#l" transform="matrix(1,0,0,1,735,738) translate(107.18518518518519 37.333333333333336)"/><use xlink:href="#m" transform="matrix(1,0,0,1,735,738) translate(130.14814814814815 37.333333333333336)"/><path d="M820 661.32v52.18" stroke="#000" stroke-width="2" fill="none"/><path d="M820 660l1-.86v2.18h-2v-2.18z"/><path d="M820 728.76l-4.64-14.26h9.28z" stroke="#000" stroke-width="2"/><use xlink:href="#n" transform="matrix(1,0,0,1,828,683.3252055564733) translate(0 17.77777777777778)"/><path d="M820 880l70 60-70 60-70-60z" stroke="#000" stroke-width="2" fill="#fff"/><use xlink:href="#j" transform="matrix(1,0,0,1,755,885) translate(32.07407407407407 60.333333333333336)"/><use xlink:href="#o" transform="matrix(1,0,0,1,755,885) translate(61.62962962962963 60.333333333333336)"/><use xlink:href="#p" transform="matrix(1,0,0,1,755,885) translate(84.5925925925926 60.333333333333336)"/><path d="M820 808v52.18" stroke="#000" stroke-width="2" fill="none"/><path d="M821 808h-2v-1h2z"/><path d="M820 875.45l-4.64-14.27h9.28z" stroke="#000" stroke-width="2"/><path d="M784.43 970.83V997H679.5" stroke="#000" stroke-width="2" fill="none"/><path d="M785.43 970.37v.46h-2v-2.17z"/><path d="M664.24 997l14.26-4.64v9.28z" stroke="#000" stroke-width="2"/><use xlink:href="#n" transform="matrix(1,0,0,1,692.2901234567901,1000.9999999999999) translate(0 17.77777777777778)"/><path d="M480 960h180v74H480z" stroke="#000" stroke-width="2" fill="#fff"/><use xlink:href="#q" transform="matrix(1,0,0,1,485,965) translate(41.03703703703704 37.333333333333336)"/><use xlink:href="#c" transform="matrix(1,0,0,1,485,965) translate(54.2962962962963 37.333333333333336)"/><use xlink:href="#r" transform="matrix(1,0,0,1,485,965) translate(84.66666666666667 37.333333333333336)"/><use xlink:href="#s" transform="matrix(1,0,0,1,485,965) translate(97.92592592592592 37.333333333333336)"/><use xlink:href="#t" transform="matrix(1,0,0,1,485,965) translate(114.14814814814815 37.333333333333336)"/><path d="M570 959V420h130.5" stroke="#000" stroke-width="2" fill="none"/><path d="M571 960h-2v-1h2z"/><path d="M715.76 420l-14.26 4.64v-9.28z" stroke="#000" stroke-width="2"/><path d="M854.9 971.4v30.64H1090v12.14" stroke="#000" stroke-width="2" fill="none"/><path d="M855.9 971.4h-2v-.47l2-1.7z"/><path d="M1090 1029.45l-4.64-14.27h9.28z" stroke="#000" stroke-width="2"/><use xlink:href="#u" transform="matrix(1,0,0,1,919.7322992274825,1006.0387364701994) translate(0 17.77777777777778)"/><path d="M1090 1034l70 60-70 60-70-60z" stroke="#000" stroke-width="2" fill="#fff"/><use xlink:href="#j" transform="matrix(1,0,0,1,1025,1039) translate(32.07407407407407 60.333333333333336)"/><use xlink:href="#v" transform="matrix(1,0,0,1,1025,1039) translate(61.62962962962963 60.333333333333336)"/><use xlink:href="#p" transform="matrix(1,0,0,1,1025,1039) translate(84.5925925925926 60.333333333333336)"/><path d="M340 1057h180v74H340z" stroke="#000" stroke-width="2" fill="#fff"/><use xlink:href="#g" transform="matrix(1,0,0,1,345,1062) translate(37.66666666666666 37.333333333333336)"/><use xlink:href="#c" transform="matrix(1,0,0,1,345,1062) translate(50.92592592592592 37.333333333333336)"/><use xlink:href="#w" transform="matrix(1,0,0,1,345,1062) translate(81.29629629629629 37.333333333333336)"/><use xlink:href="#l" transform="matrix(1,0,0,1,345,1062) translate(94.55555555555554 37.333333333333336)"/><use xlink:href="#t" transform="matrix(1,0,0,1,345,1062) translate(117.51851851851852 37.333333333333336)"/><path d="M1018.46 1094H539.5" stroke="#000" stroke-width="2" fill="none"/><path d="M1020 1094l1.17 1h-2.7v-2h2.7z"/><path d="M524.24 1094l14.26-4.64v9.28z" stroke="#000" stroke-width="2"/><use xlink:href="#n" transform="matrix(1,0,0,1,747.3551614186824,1063.3333333333335) translate(0 17.77777777777778)"/><path d="M430 1056V420h270.5" stroke="#000" stroke-width="2" fill="none"/><path d="M431 1057h-2v-1h2z"/><path d="M715.76 420l-14.26 4.64v-9.28z" stroke="#000" stroke-width="2"/><path d="M1500 1240c0 22.1-44.77 40-100 40s-100-17.9-100-40 44.77-40 100-40 100 17.9 100 40z" stroke="#000" stroke-width="2" fill="#fff"/><use xlink:href="#x" transform="matrix(1,0,0,1,1305,1205) translate(54.81481481481481 40.333333333333336)"/><path d="M1310 1057h180v74h-180z" stroke="#000" stroke-width="2" fill="#fff"/><use xlink:href="#y" transform="matrix(1,0,0,1,1315,1062) translate(9.851851851851848 37.333333333333336)"/><use xlink:href="#c" transform="matrix(1,0,0,1,1315,1062) translate(83.92592592592592 37.333333333333336)"/><use xlink:href="#z" transform="matrix(1,0,0,1,1315,1062) translate(114.2962962962963 37.333333333333336)"/><path d="M1161.54 1094h128.96" stroke="#000" stroke-width="2" fill="none"/><path d="M1161.54 1095h-2.7l1.16-1-1.17-1h2.7z"/><path d="M1305.76 1094l-14.26 4.64v-9.28z" stroke="#000" stroke-width="2"/><use xlink:href="#u" transform="matrix(1,0,0,1,1208.1695299393423,1098.0000000000002) translate(0 17.77777777777778)"/><path d="M1400 1132v48.5" stroke="#000" stroke-width="2" fill="none"/><path d="M1401 1132h-2v-1h2z"/><path d="M1400 1195.76l-4.64-14.26h9.28z" stroke="#000" stroke-width="2"/><path d="M891.54 600H1530v300.5" stroke="#000" stroke-width="2" fill="none"/><path d="M891.54 601h-2.7l1.16-1-1.17-1h2.7z"/><path d="M1530 915.76l-4.64-14.26h9.28z" stroke="#000" stroke-width="2"/><use xlink:href="#u" transform="matrix(1,0,0,1,1158.2345679012344,604) translate(0 17.77777777777778)"/><path d="M921 420h39v-40h20.5" stroke="#000" stroke-width="2" fill="none"/><path d="M921 421h-1.03v-.18l.03-.82v-.34l-.03-.66H921z"/><path d="M995.76 380l-14.26 4.64v-9.28z" stroke="#000" stroke-width="2"/><path d="M1000 340h220v80h-220z" fill="#fff"/><path d="M1022 340h-22v80h22" stroke="#000" stroke-width="2" fill="none"/><use xlink:href="#A" transform="matrix(1,0,0,1,1018.75,345) translate(0 26.111111111111114)"/><use xlink:href="#B" transform="matrix(1,0,0,1,1018.75,345) translate(91.23456790123457 26.111111111111114)"/><use xlink:href="#C" transform="matrix(1,0,0,1,1018.75,345) translate(103.58024691358025 26.111111111111114)"/><use xlink:href="#D" transform="matrix(1,0,0,1,1018.75,345) translate(0 52.77777777777778)"/><use xlink:href="#B" transform="matrix(1,0,0,1,1018.75,345) translate(74.75308641975307 52.77777777777778)"/><use xlink:href="#E" transform="matrix(1,0,0,1,1018.75,345) translate(87.09876543209876 52.77777777777778)"/><use xlink:href="#F" transform="matrix(1,0,0,1,1018.75,345) translate(98.14814814814814 52.77777777777778)"/><use xlink:href="#G" transform="matrix(1,0,0,1,1018.75,345) translate(111.66666666666666 52.77777777777778)"/><path d="M1440 920h180v74h-180z" stroke="#000" stroke-width="2" fill="#fff"/><g><use xlink:href="#y" transform="matrix(1,0,0,1,1445,925) translate(4.666666666666657 37.333333333333336)"/><use xlink:href="#c" transform="matrix(1,0,0,1,1445,925) translate(78.74074074074073 37.333333333333336)"/><use xlink:href="#H" transform="matrix(1,0,0,1,1445,925) translate(109.11111111111111 37.333333333333336)"/></g><path d="M1530 995v245h-10.5" stroke="#000" stroke-width="2" fill="none"/><path d="M1531 995h-2v-1h2z"/><path d="M1504.24 1240l14.26-4.64v9.28z" stroke="#000" stroke-width="2"/><path d="M795.12 159.75V230H730v80h65.12v45.46" stroke="#19967d" stroke-width="5" fill="none"/><path d="M795.6 158.8l2.02.15v.8h-5v-1.32z" fill="#19967d"/><path d="M795.12 372.22l-4.64-14.26h9.27z" stroke="#19967d" stroke-width="5" fill="#19967d"/><g><use xlink:href="#I" transform="matrix(1,0,0,1,708.4197530864199,255.36301005700298) translate(0 19.555555555555557)"/></g><path d="M793.47 459.54V550H740v100h53.47v70H720v100h60v85h-40v75h-70v-30h-90V444.5h132.75" stroke="#c92d39" stroke-width="5" fill="none"/><path d="M795.6 458.8l.37.03v.7h-5v-1.3z" fill="#c92d39"/><path d="M727.87 443.42l-13.9 5.64-.67-9.24z" stroke="#c92d39" stroke-width="5" fill="#c92d39"/><g><use xlink:href="#J" transform="matrix(1,0,0,1,588,682.6666666666671) translate(0 19.555555555555557)"/></g><path d="M845.55 459.63V550H900v100h-20v70h40v100h-74.45v70H900v100h170v45h-60v85H530v20H330v-90h90V398.57h287.6" stroke="#0c7cba" stroke-width="5" fill="none"/><path d="M848.05 459.63h-5v-.77l5-.48z" fill="#0c7cba"/><path d="M720.57 401l-14.88 1.93 1.7-9.1z" stroke="#0c7cba" stroke-width="5" fill="#0c7cba"/><g><use xlink:href="#K" transform="matrix(1,0,0,1,398.41975308641975,682.6666666666662) translate(0 19.555555555555557)"/></g><path d="M862.66 457.15V530H920v140h-20v30h40v140h-77.34v30H920v100h190v70h55v40h115v60h103.62v34.7" stroke="#834187" stroke-width="5" fill="none"/><path d="M865.16 457.15h-5v-.52l5-1z" fill="#834187"/><path d="M1383.62 1191.47l-4.64-14.27h9.27z" stroke="#834187" stroke-width="5" fill="#834187"/><g><use xlink:href="#L" transform="matrix(1,0,0,1,948.0000000000001,753.3333333333334) translate(0 19.555555555555557)"/></g><path d="M881.7 452.48V510H940v70h610v330h80v100h-80v270h-87.18" stroke="#cdc72c" stroke-width="5" fill="none"/><path d="M884.2 452.48h-5v-.28l4.65-1.4.36-.14z" fill="#cdc72c"/><path d="M1448.4 1278.47l14.67-3.1-.98 9.2z" stroke="#cdc72c" stroke-width="5" fill="#cdc72c"/><g><use xlink:href="#M" transform="matrix(1,0,0,1,1252.5432098765432,546.6666666666667) translate(0 19.555555555555557)"/></g><defs><path d="M198-261c85 0 136 45 136 128 0 61-22 111-78 115-29 2-39-18-37-44-12 23-32 44-66 44-41 0-58-28-58-68 0-60 30-105 88-108 29-1 43 15 54 32l7-28h28c-9 45-23 84-27 134-1 11 6 17 14 16 39-4 51-48 51-92 0-69-42-107-112-107-93 0-145 59-145 153C53-15 94 26 168 27c43 0 78-13 106-28l9 19c-30 18-67 32-115 32C79 50 28-1 28-86c0-107 62-175 170-175zM158-41c46 0 70-43 70-90 0-26-17-40-43-40-44 0-59 41-61 85-1 26 9 45 34 45" id="N"/><path d="M30-248c87 1 191-15 191 75 0 78-77 80-158 76V0H30v-248zm33 125c57 0 124 11 124-50 0-59-68-47-124-48v98" id="O"/><path d="M114-163C36-179 61-72 57 0H25l-1-190h30c1 12-1 29 2 39 6-27 23-49 58-41v29" id="P"/><path d="M100-194c63 0 86 42 84 106H49c0 40 14 67 53 68 26 1 43-12 49-29l28 8c-11 28-37 45-77 45C44 4 14-33 15-96c1-61 26-98 85-98zm52 81c6-60-76-77-97-28-3 7-6 17-6 28h103" id="Q"/><g id="a"><use transform="matrix(0.07407407407407408,0,0,0.07407407407407408,0,0)" xlink:href="#N"/><use transform="matrix(0.07407407407407408,0,0,0.07407407407407408,27.03703703703704,0)" xlink:href="#O"/><use transform="matrix(0.07407407407407408,0,0,0.07407407407407408,44.814814814814824,0)" xlink:href="#P"/><use transform="matrix(0.07407407407407408,0,0,0.07407407407407408,53.62962962962963,0)" xlink:href="#Q"/></g><path d="M24-231v-30h32v30H24zM24 0v-190h32V0H24" id="R"/><path d="M68-38c1 34 0 65-14 84H32c9-13 17-26 17-46H33v-38h35" id="S"/><path d="M24-231v-30h32v30H24zM-9 49c24 4 33-6 33-30v-209h32V24c2 40-23 58-65 49V49" id="T"/><g id="b"><use transform="matrix(0.07407407407407408,0,0,0.07407407407407408,0,0)" xlink:href="#R"/><use transform="matrix(0.07407407407407408,0,0,0.07407407407407408,5.851851851851853,0)" xlink:href="#S"/><use transform="matrix(0.07407407407407408,0,0,0.07407407407407408,13.259259259259261,0)" xlink:href="#T"/></g><path d="M33-154v-36h34v36H33zM33 0v-36h34V0H33" id="U"/><path d="M18-150v-26h174v26H18zm0 90v-26h174v26H18" id="V"/><g id="c"><use transform="matrix(0.07407407407407408,0,0,0.07407407407407408,0,0)" xlink:href="#U"/><use transform="matrix(0.07407407407407408,0,0,0.07407407407407408,7.407407407407408,0)" xlink:href="#V"/></g><path d="M101-251c68 0 85 55 85 127S166 4 100 4C33 4 14-52 14-124c0-73 17-127 87-127zm-1 229c47 0 54-49 54-102s-4-102-53-102c-51 0-55 48-55 102 0 53 5 102 54 102" id="W"/><g id="d"><use transform="matrix(0.07407407407407408,0,0,0.07407407407407408,0,0)" xlink:href="#W"/><use transform="matrix(0.07407407407407408,0,0,0.07407407407407408,14.814814814814817,0)" xlink:href="#S"/></g><path d="M32 76v-337h29V76H32" id="X"/><path d="M141-36C126-15 110 5 73 4 37 3 15-17 15-53c-1-64 63-63 125-63 3-35-9-54-41-54-24 1-41 7-42 31l-33-3c5-37 33-52 76-52 45 0 72 20 72 64v82c-1 20 7 32 28 27v20c-31 9-61-2-59-35zM48-53c0 20 12 33 32 33 41-3 63-29 60-74-43 2-92-5-92 41" id="Y"/><path d="M16-82v-28h88v28H16" id="Z"/><path d="M27 0v-27h64v-190l-56 39v-29l58-41h29v221h61V0H27" id="aa"/><g id="e"><use transform="matrix(0.07407407407407408,0,0,0.07407407407407408,0,0)" xlink:href="#X"/><use transform="matrix(0.07407407407407408,0,0,0.07407407407407408,6.88888888888889,0)" xlink:href="#Y"/><use transform="matrix(0.07407407407407408,0,0,0.07407407407407408,21.703703703703706,0)" xlink:href="#X"/><use transform="matrix(0.07407407407407408,0,0,0.07407407407407408,28.592592592592595,0)" xlink:href="#Z"/><use transform="matrix(0.07407407407407408,0,0,0.07407407407407408,37.40740740740741,0)" xlink:href="#aa"/></g><path d="M30 0v-248h33v221h125V0H30" id="ab"/><g id="f"><use transform="matrix(0.07407407407407408,0,0,0.07407407407407408,0,0)" xlink:href="#N"/><use transform="matrix(0.07407407407407408,0,0,0.07407407407407408,27.03703703703704,0)" xlink:href="#ab"/></g><use transform="matrix(0.07407407407407408,0,0,0.07407407407407408,0,0)" xlink:href="#R" id="g"/><path d="M11-111v-36l175-69v27L36-129l150 61v27zM11 0v-25h175V0H11" id="ac"/><use transform="matrix(0.07407407407407408,0,0,0.07407407407407408,0,0)" xlink:href="#ac" id="h"/><use transform="matrix(0.07407407407407408,0,0,0.07407407407407408,0,0)" xlink:href="#T" id="i"/><path d="M210-169c-67 3-38 105-44 169h-31v-121c0-29-5-50-35-48C34-165 62-65 56 0H25l-1-190h30c1 10-1 24 2 32 10-44 99-50 107 0 11-21 27-35 58-36 85-2 47 119 55 194h-31v-121c0-29-5-49-35-48" id="ad"/><use transform="matrix(0.07407407407407408,0,0,0.07407407407407408,0,0)" xlink:href="#ad" id="j"/><path d="M26 75v-336h71v23H56V52h41v23H26" id="ae"/><path d="M3 75V52h41v-290H3v-23h71V75H3" id="af"/><g id="k"><use transform="matrix(0.07407407407407408,0,0,0.07407407407407408,0,0)" xlink:href="#Y"/><use transform="matrix(0.07407407407407408,0,0,0.07407407407407408,14.814814814814817,0)" xlink:href="#ae"/><use transform="matrix(0.07407407407407408,0,0,0.07407407407407408,22.222222222222225,0)" xlink:href="#R"/><use transform="matrix(0.07407407407407408,0,0,0.07407407407407408,28.074074074074076,0)" xlink:href="#af"/></g><path d="M118-107v75H92v-75H18v-26h74v-75h26v75h74v26h-74" id="ag"/><use transform="matrix(0.07407407407407408,0,0,0.07407407407407408,0,0)" xlink:href="#ag" id="l"/><g id="m"><use transform="matrix(0.07407407407407408,0,0,0.07407407407407408,0,0)" xlink:href="#Y"/><use transform="matrix(0.07407407407407408,0,0,0.07407407407407408,14.814814814814817,0)" xlink:href="#ae"/><use transform="matrix(0.07407407407407408,0,0,0.07407407407407408,22.222222222222225,0)" xlink:href="#T"/><use transform="matrix(0.07407407407407408,0,0,0.07407407407407408,28.074074074074076,0)" xlink:href="#af"/></g><path d="M127-220V0H93v-220H8v-28h204v28h-85" id="ah"/><path d="M84 4C-5 8 30-112 23-190h32v120c0 31 7 50 39 49 72-2 45-101 50-169h31l1 190h-30c-1-10 1-25-2-33-11 22-28 36-60 37" id="ai"/><g id="n"><use transform="matrix(0.06172839506172839,0,0,0.06172839506172839,0,0)" xlink:href="#ah"/><use transform="matrix(0.06172839506172839,0,0,0.06172839506172839,12.716049382716047,0)" xlink:href="#P"/><use transform="matrix(0.06172839506172839,0,0,0.06172839506172839,20.061728395061728,0)" xlink:href="#ai"/><use transform="matrix(0.06172839506172839,0,0,0.06172839506172839,32.407407407407405,0)" xlink:href="#Q"/></g><path d="M18-27v-27l151-64-151-65v-27l175 74v36" id="aj"/><use transform="matrix(0.07407407407407408,0,0,0.07407407407407408,0,0)" xlink:href="#aj" id="o"/><path d="M135-143c-3-34-86-38-87 0 15 53 115 12 119 90S17 21 10-45l28-5c4 36 97 45 98 0-10-56-113-15-118-90-4-57 82-63 122-42 12 7 21 19 24 35" id="ak"/><use transform="matrix(0.07407407407407408,0,0,0.07407407407407408,0,0)" xlink:href="#ak" id="p"/><use transform="matrix(0.07407407407407408,0,0,0.07407407407407408,0,0)" xlink:href="#T" id="q"/><use transform="matrix(0.07407407407407408,0,0,0.07407407407407408,0,0)" xlink:href="#T" id="r"/><use transform="matrix(0.07407407407407408,0,0,0.07407407407407408,0,0)" xlink:href="#Z" id="s"/><use transform="matrix(0.07407407407407408,0,0,0.07407407407407408,0,0)" xlink:href="#aa" id="t"/><path d="M63-220v92h138v28H63V0H30v-248h175v28H63" id="al"/><path d="M24 0v-261h32V0H24" id="am"/><g id="u"><use transform="matrix(0.06172839506172839,0,0,0.06172839506172839,0,0)" xlink:href="#al"/><use transform="matrix(0.06172839506172839,0,0,0.06172839506172839,13.518518518518517,0)" xlink:href="#Y"/><use transform="matrix(0.06172839506172839,0,0,0.06172839506172839,25.864197530864196,0)" xlink:href="#am"/><use transform="matrix(0.06172839506172839,0,0,0.06172839506172839,30.74074074074074,0)" xlink:href="#ak"/><use transform="matrix(0.06172839506172839,0,0,0.06172839506172839,41.85185185185185,0)" xlink:href="#Q"/></g><path d="M18-100v-36l175-74v27L42-118l151 64v27" id="an"/><use transform="matrix(0.07407407407407408,0,0,0.07407407407407408,0,0)" xlink:href="#an" id="v"/><use transform="matrix(0.07407407407407408,0,0,0.07407407407407408,0,0)" xlink:href="#R" id="w"/><path d="M100-194c62-1 85 37 85 99 1 63-27 99-86 99S16-35 15-95c0-66 28-99 85-99zM99-20c44 1 53-31 53-75 0-43-8-75-51-75s-53 32-53 75 10 74 51 75" id="ao"/><path d="M59-47c-2 24 18 29 38 22v24C64 9 27 4 27-40v-127H5v-23h24l9-43h21v43h35v23H59v120" id="ap"/><g id="x"><use transform="matrix(0.07407407407407408,0,0,0.07407407407407408,0,0)" xlink:href="#N"/><use transform="matrix(0.07407407407407408,0,0,0.07407407407407408,27.03703703703704,0)" xlink:href="#O"/><use transform="matrix(0.07407407407407408,0,0,0.07407407407407408,44.814814814814824,0)" xlink:href="#ao"/><use transform="matrix(0.07407407407407408,0,0,0.07407407407407408,59.62962962962964,0)" xlink:href="#ak"/><use transform="matrix(0.07407407407407408,0,0,0.07407407407407408,72.96296296296298,0)" xlink:href="#ap"/></g><path d="M101-234c-31-9-42 10-38 44h38v23H63V0H32v-167H5v-23h27c-7-52 17-82 69-68v24" id="aq"/><path d="M117-194c89-4 53 116 60 194h-32v-121c0-31-8-49-39-48C34-167 62-67 57 0H25l-1-190h30c1 10-1 24 2 32 11-22 29-35 61-36" id="ar"/><path d="M85-194c31 0 48 13 60 33l-1-100h32l1 261h-30c-2-10 0-23-3-31C134-8 116 4 85 4 32 4 16-35 15-94c0-66 23-100 70-100zm9 24c-40 0-46 34-46 75 0 40 6 74 45 74 42 0 51-32 51-76 0-42-9-74-50-73" id="as"/><g id="y"><use transform="matrix(0.07407407407407408,0,0,0.07407407407407408,0,0)" xlink:href="#aq"/><use transform="matrix(0.07407407407407408,0,0,0.07407407407407408,7.407407407407408,0)" xlink:href="#ao"/><use transform="matrix(0.07407407407407408,0,0,0.07407407407407408,22.222222222222225,0)" xlink:href="#ai"/><use transform="matrix(0.07407407407407408,0,0,0.07407407407407408,37.03703703703704,0)" xlink:href="#ar"/><use transform="matrix(0.07407407407407408,0,0,0.07407407407407408,51.85185185185186,0)" xlink:href="#as"/></g><g id="z"><use transform="matrix(0.07407407407407408,0,0,0.07407407407407408,0,0)" xlink:href="#ap"/><use transform="matrix(0.07407407407407408,0,0,0.07407407407407408,7.407407407407408,0)" xlink:href="#P"/><use transform="matrix(0.07407407407407408,0,0,0.07407407407407408,16.222222222222225,0)" xlink:href="#ai"/><use transform="matrix(0.07407407407407408,0,0,0.07407407407407408,31.03703703703704,0)" xlink:href="#Q"/></g><path d="M33 0v-248h34V0H33" id="at"/><path d="M108 0H70L1-190h34L89-25l56-165h34" id="au"/><g id="A"><use transform="matrix(0.06172839506172839,0,0,0.06172839506172839,0,0)" xlink:href="#at"/><use transform="matrix(0.06172839506172839,0,0,0.06172839506172839,6.172839506172839,0)" xlink:href="#ar"/><use transform="matrix(0.06172839506172839,0,0,0.06172839506172839,18.51851851851852,0)" xlink:href="#au"/><use transform="matrix(0.06172839506172839,0,0,0.06172839506172839,29.62962962962963,0)" xlink:href="#Y"/><use transform="matrix(0.06172839506172839,0,0,0.06172839506172839,41.97530864197531,0)" xlink:href="#P"/><use transform="matrix(0.06172839506172839,0,0,0.06172839506172839,49.32098765432099,0)" xlink:href="#R"/><use transform="matrix(0.06172839506172839,0,0,0.06172839506172839,54.19753086419753,0)" xlink:href="#Y"/><use transform="matrix(0.06172839506172839,0,0,0.06172839506172839,66.54320987654322,0)" xlink:href="#ar"/><use transform="matrix(0.06172839506172839,0,0,0.06172839506172839,78.8888888888889,0)" xlink:href="#ap"/></g><use transform="matrix(0.06172839506172839,0,0,0.06172839506172839,0,0)" xlink:href="#U" id="B"/><g id="C"><use transform="matrix(0.06172839506172839,0,0,0.06172839506172839,0,0)" xlink:href="#N"/><use transform="matrix(0.06172839506172839,0,0,0.06172839506172839,22.530864197530864,0)" xlink:href="#at"/></g><path d="M137 0h-34L2-248h35l83 218 83-218h36" id="av"/><g id="D"><use transform="matrix(0.06172839506172839,0,0,0.06172839506172839,0,0)" xlink:href="#av"/><use transform="matrix(0.06172839506172839,0,0,0.06172839506172839,13.148148148148147,0)" xlink:href="#Y"/><use transform="matrix(0.06172839506172839,0,0,0.06172839506172839,25.493827160493826,0)" xlink:href="#P"/><use transform="matrix(0.06172839506172839,0,0,0.06172839506172839,32.839506172839506,0)" xlink:href="#R"/><use transform="matrix(0.06172839506172839,0,0,0.06172839506172839,37.71604938271605,0)" xlink:href="#Y"/><use transform="matrix(0.06172839506172839,0,0,0.06172839506172839,50.06172839506173,0)" xlink:href="#ar"/><use transform="matrix(0.06172839506172839,0,0,0.06172839506172839,62.407407407407405,0)" xlink:href="#ap"/></g><use transform="matrix(0.06172839506172839,0,0,0.06172839506172839,0,0)" xlink:href="#T" id="E"/><use transform="matrix(0.06172839506172839,0,0,0.06172839506172839,0,0)" xlink:href="#Z" id="F"/><use transform="matrix(0.06172839506172839,0,0,0.06172839506172839,0,0)" xlink:href="#R" id="G"/><g id="H"><use transform="matrix(0.07407407407407408,0,0,0.07407407407407408,0,0)" xlink:href="#aq"/><use transform="matrix(0.07407407407407408,0,0,0.07407407407407408,7.407407407407408,0)" xlink:href="#Y"/><use transform="matrix(0.07407407407407408,0,0,0.07407407407407408,22.222222222222225,0)" xlink:href="#am"/><use transform="matrix(0.07407407407407408,0,0,0.07407407407407408,28.074074074074076,0)" xlink:href="#ak"/><use transform="matrix(0.07407407407407408,0,0,0.07407407407407408,41.40740740740741,0)" xlink:href="#Q"/></g><path fill="#19967d" d="M23 0v-37h61v-169l-59 37v-38l62-41h46v211h57V0H23" id="aw"/><use transform="matrix(0.06790123456790124,0,0,0.06790123456790124,0,0)" xlink:href="#aw" id="I"/><path fill="#c92d39" d="M182-182c0 78-84 86-111 141h115V0H12c-6-101 99-100 120-180 1-22-12-31-33-32-23 0-32 14-35 34l-49-3c5-45 32-70 84-70 51 0 83 22 83 69" id="ax"/><use transform="matrix(0.06790123456790124,0,0,0.06790123456790124,0,0)" xlink:href="#ax" id="J"/><path fill="#0c7cba" d="M128-127c34 4 56 21 59 58 7 91-148 94-172 28-4-9-6-17-7-26l51-5c1 24 16 35 40 36 23 0 39-12 38-36-1-31-31-36-65-34v-40c32 2 59-3 59-33 0-20-13-33-34-33s-33 13-35 32l-50-3c6-44 37-68 86-68 50 0 83 20 83 66 0 35-22 52-53 58" id="ay"/><use transform="matrix(0.06790123456790124,0,0,0.06790123456790124,0,0)" xlink:href="#ay" id="K"/><path fill="#834187" d="M165-50V0h-47v-50H5v-38l105-160h55v161h33v37h-33zm-47-37l2-116L46-87h72" id="az"/><use transform="matrix(0.06790123456790124,0,0,0.06790123456790124,0,0)" xlink:href="#az" id="L"/><path fill="#cdc72c" d="M139-81c0-46-55-55-73-27H18l9-140h149v37H72l-4 63c44-38 133-4 122 66C201 21 21 35 11-62l49-4c5 18 15 30 39 30 26 0 40-18 40-45" id="aA"/><use transform="matrix(0.06790123456790124,0,0,0.06790123456790124,0,0)" xlink:href="#aA" id="M"/></defs></g></svg>