<svg xmlns="http://www.w3.org/2000/svg" xmlns:xlink="http://www.w3.org/1999/xlink" xmlns:lucid="lucid" width="240" height="1140"><g transform="translate(-525.1999999999998 -40)" lucid:page-tab-id="FQh1XXDj1EUU"><path d="M745.2 100c0 22.1-44.77 40-100 40s-100-17.9-100-40 44.77-40 100-40 100 17.9 100 40z" stroke="#000" stroke-width="2" fill="#fff"/><use xlink:href="#a" transform="matrix(1,0,0,1,550.1999999999999,65) translate(74.07407407407408 40.333333333333336)"/><path d="M645.2 220l70 60-70 60-70-60z" stroke="#000" stroke-width="2" fill="#fff"/><use xlink:href="#b" transform="matrix(1,0,0,1,580.1999999999999,225) translate(36.18518518518518 60.333333333333336)"/><use xlink:href="#c" transform="matrix(1,0,0,1,580.1999999999999,225) translate(49.44444444444444 60.333333333333336)"/><use xlink:href="#d" transform="matrix(1,0,0,1,580.1999999999999,225) translate(87.96296296296296 60.333333333333336)"/><path d="M645.2 141v59.18" stroke="#000" stroke-width="2" fill="none"/><path d="M645.2 140h1v1h-2v-1.02z"/><path d="M645.2 215.45l-4.64-14.27h9.28z" stroke="#000" stroke-width="2"/><path d="M555.2 413h180v74h-180z" stroke="#000" stroke-width="2" fill="#fff"/><use xlink:href="#e" transform="matrix(1,0,0,1,560.1999999999999,418) translate(4.370370370370367 37.333333333333336)"/><use xlink:href="#f" transform="matrix(1,0,0,1,560.1999999999999,418) translate(33.925925925925924 37.333333333333336)"/><use xlink:href="#g" transform="matrix(1,0,0,1,560.1999999999999,418) translate(64.2962962962963 37.333333333333336)"/><use xlink:href="#h" transform="matrix(1,0,0,1,560.1999999999999,418) translate(107.18518518518519 37.333333333333336)"/><use xlink:href="#i" transform="matrix(1,0,0,1,560.1999999999999,418) translate(130.14814814814815 37.333333333333336)"/><path d="M645.2 341.32v52.18" stroke="#000" stroke-width="2" fill="none"/><path d="M646.2 341.32h-2v-2.18l1 .86 1-.86z"/><path d="M645.2 408.76l-4.64-14.26h9.28z" stroke="#000" stroke-width="2"/><use xlink:href="#j" transform="matrix(1,0,0,1,653.1999999999999,363.3252055564733) translate(0 17.77777777777778)"/><path d="M645.2 560l70 60-70 60-70-60z" stroke="#000" stroke-width="2" fill="#fff"/><use xlink:href="#e" transform="matrix(1,0,0,1,580.1999999999999,565) translate(32.07407407407407 60.333333333333336)"/><use xlink:href="#k" transform="matrix(1,0,0,1,580.1999999999999,565) translate(61.62962962962963 60.333333333333336)"/><use xlink:href="#l" transform="matrix(1,0,0,1,580.1999999999999,565) translate(84.5925925925926 60.333333333333336)"/><path d="M645.2 488v52.18" stroke="#000" stroke-width="2" fill="none"/><path d="M646.2 488h-2v-1h2z"/><path d="M645.2 555.45l-4.64-14.27h9.28z" stroke="#000" stroke-width="2"/><path d="M645.2 681.32v51.86" stroke="#000" stroke-width="2" fill="none"/><path d="M646.2 681.32h-2v-2.18l1 .86 1-.86z"/><path d="M645.2 748.45l-4.64-14.27h9.28z" stroke="#000" stroke-width="2"/><use xlink:href="#m" transform="matrix(1,0,0,1,583.0024691358025,698) translate(0 17.77777777777778)"/><path d="M645.2 753l70 60-70 60-70-60z" stroke="#000" stroke-width="2" fill="#fff"/><use xlink:href="#e" transform="matrix(1,0,0,1,580.1999999999999,758) translate(32.07407407407407 60.333333333333336)"/><use xlink:href="#n" transform="matrix(1,0,0,1,580.1999999999999,758) translate(61.62962962962963 60.333333333333336)"/><use xlink:href="#l" transform="matrix(1,0,0,1,580.1999999999999,758) translate(84.5925925925926 60.333333333333336)"/><path d="M745.2 1120c0 22.1-44.77 40-100 40s-100-17.9-100-40 44.77-40 100-40 100 17.9 100 40z" stroke="#000" stroke-width="2" fill="#fff"/><use xlink:href="#o" transform="matrix(1,0,0,1,550.1999999999998,1085) translate(54.81481481481481 40.333333333333336)"/><path d="M555.2 946h180v74h-180z" stroke="#000" stroke-width="2" fill="#fff"/><g><use xlink:href="#p" transform="matrix(1,0,0,1,560.1999999999999,951) translate(9.851851851851848 37.333333333333336)"/><use xlink:href="#f" transform="matrix(1,0,0,1,560.1999999999999,951) translate(83.92592592592592 37.333333333333336)"/><use xlink:href="#q" transform="matrix(1,0,0,1,560.1999999999999,951) translate(114.2962962962963 37.333333333333336)"/></g><path d="M645.2 874.32v52.18" stroke="#000" stroke-width="2" fill="none"/><path d="M646.2 874.32h-2v-2.18l1 .86 1-.86z"/><path d="M645.2 941.76l-4.64-14.26h9.28z" stroke="#000" stroke-width="2"/><g><use xlink:href="#m" transform="matrix(1,0,0,1,583.0024691358025,888.6666666666666) translate(0 17.77777777777778)"/></g><path d="M645.2 1021v39.5" stroke="#000" stroke-width="2" fill="none"/><path d="M646.2 1021h-2v-1h2z"/><path d="M645.2 1075.76l-4.64-14.26h9.28z" stroke="#000" stroke-width="2"/><defs><path d="M198-261c85 0 136 45 136 128 0 61-22 111-78 115-29 2-39-18-37-44-12 23-32 44-66 44-41 0-58-28-58-68 0-60 30-105 88-108 29-1 43 15 54 32l7-28h28c-9 45-23 84-27 134-1 11 6 17 14 16 39-4 51-48 51-92 0-69-42-107-112-107-93 0-145 59-145 153C53-15 94 26 168 27c43 0 78-13 106-28l9 19c-30 18-67 32-115 32C79 50 28-1 28-86c0-107 62-175 170-175zM158-41c46 0 70-43 70-90 0-26-17-40-43-40-44 0-59 41-61 85-1 26 9 45 34 45" id="r"/><path d="M30 0v-248h33v221h125V0H30" id="s"/><g id="a"><use transform="matrix(0.07407407407407408,0,0,0.07407407407407408,0,0)" xlink:href="#r"/><use transform="matrix(0.07407407407407408,0,0,0.07407407407407408,27.03703703703704,0)" xlink:href="#s"/></g><path d="M24-231v-30h32v30H24zM24 0v-190h32V0H24" id="t"/><use transform="matrix(0.07407407407407408,0,0,0.07407407407407408,0,0)" xlink:href="#t" id="b"/><path d="M18-100v-36l175-74v27L42-118l151 64v27" id="u"/><path d="M18-150v-26h174v26H18zm0 90v-26h174v26H18" id="v"/><g id="c"><use transform="matrix(0.07407407407407408,0,0,0.07407407407407408,0,0)" xlink:href="#u"/><use transform="matrix(0.07407407407407408,0,0,0.07407407407407408,15.555555555555557,0)" xlink:href="#v"/></g><path d="M24-231v-30h32v30H24zM-9 49c24 4 33-6 33-30v-209h32V24c2 40-23 58-65 49V49" id="w"/><use transform="matrix(0.07407407407407408,0,0,0.07407407407407408,0,0)" xlink:href="#w" id="d"/><path d="M210-169c-67 3-38 105-44 169h-31v-121c0-29-5-50-35-48C34-165 62-65 56 0H25l-1-190h30c1 10-1 24 2 32 10-44 99-50 107 0 11-21 27-35 58-36 85-2 47 119 55 194h-31v-121c0-29-5-49-35-48" id="x"/><use transform="matrix(0.07407407407407408,0,0,0.07407407407407408,0,0)" xlink:href="#x" id="e"/><path d="M33-154v-36h34v36H33zM33 0v-36h34V0H33" id="y"/><g id="f"><use transform="matrix(0.07407407407407408,0,0,0.07407407407407408,0,0)" xlink:href="#y"/><use transform="matrix(0.07407407407407408,0,0,0.07407407407407408,7.407407407407408,0)" xlink:href="#v"/></g><path d="M141-36C126-15 110 5 73 4 37 3 15-17 15-53c-1-64 63-63 125-63 3-35-9-54-41-54-24 1-41 7-42 31l-33-3c5-37 33-52 76-52 45 0 72 20 72 64v82c-1 20 7 32 28 27v20c-31 9-61-2-59-35zM48-53c0 20 12 33 32 33 41-3 63-29 60-74-43 2-92-5-92 41" id="z"/><path d="M26 75v-336h71v23H56V52h41v23H26" id="A"/><path d="M3 75V52h41v-290H3v-23h71V75H3" id="B"/><g id="g"><use transform="matrix(0.07407407407407408,0,0,0.07407407407407408,0,0)" xlink:href="#z"/><use transform="matrix(0.07407407407407408,0,0,0.07407407407407408,14.814814814814817,0)" xlink:href="#A"/><use transform="matrix(0.07407407407407408,0,0,0.07407407407407408,22.222222222222225,0)" xlink:href="#t"/><use transform="matrix(0.07407407407407408,0,0,0.07407407407407408,28.074074074074076,0)" xlink:href="#B"/></g><path d="M118-107v75H92v-75H18v-26h74v-75h26v75h74v26h-74" id="C"/><use transform="matrix(0.07407407407407408,0,0,0.07407407407407408,0,0)" xlink:href="#C" id="h"/><g id="i"><use transform="matrix(0.07407407407407408,0,0,0.07407407407407408,0,0)" xlink:href="#z"/><use transform="matrix(0.07407407407407408,0,0,0.07407407407407408,14.814814814814817,0)" xlink:href="#A"/><use transform="matrix(0.07407407407407408,0,0,0.07407407407407408,22.222222222222225,0)" xlink:href="#w"/><use transform="matrix(0.07407407407407408,0,0,0.07407407407407408,28.074074074074076,0)" xlink:href="#B"/></g><path d="M127-220V0H93v-220H8v-28h204v28h-85" id="D"/><path d="M114-163C36-179 61-72 57 0H25l-1-190h30c1 12-1 29 2 39 6-27 23-49 58-41v29" id="E"/><path d="M84 4C-5 8 30-112 23-190h32v120c0 31 7 50 39 49 72-2 45-101 50-169h31l1 190h-30c-1-10 1-25-2-33-11 22-28 36-60 37" id="F"/><path d="M100-194c63 0 86 42 84 106H49c0 40 14 67 53 68 26 1 43-12 49-29l28 8c-11 28-37 45-77 45C44 4 14-33 15-96c1-61 26-98 85-98zm52 81c6-60-76-77-97-28-3 7-6 17-6 28h103" id="G"/><g id="j"><use transform="matrix(0.06172839506172839,0,0,0.06172839506172839,0,0)" xlink:href="#D"/><use transform="matrix(0.06172839506172839,0,0,0.06172839506172839,12.716049382716047,0)" xlink:href="#E"/><use transform="matrix(0.06172839506172839,0,0,0.06172839506172839,20.061728395061728,0)" xlink:href="#F"/><use transform="matrix(0.06172839506172839,0,0,0.06172839506172839,32.407407407407405,0)" xlink:href="#G"/></g><path d="M18-27v-27l151-64-151-65v-27l175 74v36" id="H"/><use transform="matrix(0.07407407407407408,0,0,0.07407407407407408,0,0)" xlink:href="#H" id="k"/><path d="M135-143c-3-34-86-38-87 0 15 53 115 12 119 90S17 21 10-45l28-5c4 36 97 45 98 0-10-56-113-15-118-90-4-57 82-63 122-42 12 7 21 19 24 35" id="I"/><use transform="matrix(0.07407407407407408,0,0,0.07407407407407408,0,0)" xlink:href="#I" id="l"/><path d="M63-220v92h138v28H63V0H30v-248h175v28H63" id="J"/><path d="M24 0v-261h32V0H24" id="K"/><g id="m"><use transform="matrix(0.06172839506172839,0,0,0.06172839506172839,0,0)" xlink:href="#J"/><use transform="matrix(0.06172839506172839,0,0,0.06172839506172839,13.518518518518517,0)" xlink:href="#z"/><use transform="matrix(0.06172839506172839,0,0,0.06172839506172839,25.864197530864196,0)" xlink:href="#K"/><use transform="matrix(0.06172839506172839,0,0,0.06172839506172839,30.74074074074074,0)" xlink:href="#I"/><use transform="matrix(0.06172839506172839,0,0,0.06172839506172839,41.85185185185185,0)" xlink:href="#G"/></g><use transform="matrix(0.07407407407407408,0,0,0.07407407407407408,0,0)" xlink:href="#u" id="n"/><path d="M30-248c87 1 191-15 191 75 0 78-77 80-158 76V0H30v-248zm33 125c57 0 124 11 124-50 0-59-68-47-124-48v98" id="L"/><path d="M100-194c62-1 85 37 85 99 1 63-27 99-86 99S16-35 15-95c0-66 28-99 85-99zM99-20c44 1 53-31 53-75 0-43-8-75-51-75s-53 32-53 75 10 74 51 75" id="M"/><path d="M59-47c-2 24 18 29 38 22v24C64 9 27 4 27-40v-127H5v-23h24l9-43h21v43h35v23H59v120" id="N"/><g id="o"><use transform="matrix(0.07407407407407408,0,0,0.07407407407407408,0,0)" xlink:href="#r"/><use transform="matrix(0.07407407407407408,0,0,0.07407407407407408,27.03703703703704,0)" xlink:href="#L"/><use transform="matrix(0.07407407407407408,0,0,0.07407407407407408,44.814814814814824,0)" xlink:href="#M"/><use transform="matrix(0.07407407407407408,0,0,0.07407407407407408,59.62962962962964,0)" xlink:href="#I"/><use transform="matrix(0.07407407407407408,0,0,0.07407407407407408,72.96296296296298,0)" xlink:href="#N"/></g><path d="M101-234c-31-9-42 10-38 44h38v23H63V0H32v-167H5v-23h27c-7-52 17-82 69-68v24" id="O"/><path d="M117-194c89-4 53 116 60 194h-32v-121c0-31-8-49-39-48C34-167 62-67 57 0H25l-1-190h30c1 10-1 24 2 32 11-22 29-35 61-36" id="P"/><path d="M85-194c31 0 48 13 60 33l-1-100h32l1 261h-30c-2-10 0-23-3-31C134-8 116 4 85 4 32 4 16-35 15-94c0-66 23-100 70-100zm9 24c-40 0-46 34-46 75 0 40 6 74 45 74 42 0 51-32 51-76 0-42-9-74-50-73" id="Q"/><g id="p"><use transform="matrix(0.07407407407407408,0,0,0.07407407407407408,0,0)" xlink:href="#O"/><use transform="matrix(0.07407407407407408,0,0,0.07407407407407408,7.407407407407408,0)" xlink:href="#M"/><use transform="matrix(0.07407407407407408,0,0,0.07407407407407408,22.222222222222225,0)" xlink:href="#F"/><use transform="matrix(0.07407407407407408,0,0,0.07407407407407408,37.03703703703704,0)" xlink:href="#P"/><use transform="matrix(0.07407407407407408,0,0,0.07407407407407408,51.85185185185186,0)" xlink:href="#Q"/></g><g id="q"><use transform="matrix(0.07407407407407408,0,0,0.07407407407407408,0,0)" xlink:href="#N"/><use transform="matrix(0.07407407407407408,0,0,0.07407407407407408,7.407407407407408,0)" xlink:href="#E"/><use transform="matrix(0.07407407407407408,0,0,0.07407407407407408,16.222222222222225,0)" xlink:href="#F"/><use transform="matrix(0.07407407407407408,0,0,0.07407407407407408,31.03703703703704,0)" xlink:href="#G"/></g></defs></g></svg>