<svg xmlns="http://www.w3.org/2000/svg" xmlns:xlink="http://www.w3.org/1999/xlink" xmlns:lucid="lucid" width="272" height="974"><g transform="translate(-667.9999459927428 -360)" lucid:page-tab-id="dQh1DknL5q8s"><path d="M920 420c0 22.1-44.77 40-100 40s-100-17.9-100-40 44.77-40 100-40 100 17.9 100 40z" stroke="#000" stroke-width="2" fill="#fff"/><use xlink:href="#a" transform="matrix(1,0,0,1,725,385) translate(74.07407407407408 40.333333333333336)"/><path d="M820 540l70 60-70 60-70-60z" stroke="#000" stroke-width="2" fill="#fff"/><use xlink:href="#b" transform="matrix(1,0,0,1,755,545) translate(36.18518518518518 60.333333333333336)"/><use xlink:href="#c" transform="matrix(1,0,0,1,755,545) translate(49.44444444444444 60.333333333333336)"/><use xlink:href="#d" transform="matrix(1,0,0,1,755,545) translate(87.96296296296296 60.333333333333336)"/><path d="M820 461v59.18" stroke="#000" stroke-width="2" fill="none"/><path d="M820 460h1v1h-2v-1.02z"/><path d="M820 535.45l-4.64-14.27h9.28z" stroke="#000" stroke-width="2"/><path d="M730 733h180v74H730z" stroke="#000" stroke-width="2" fill="#fff"/><use xlink:href="#e" transform="matrix(1,0,0,1,735,738) translate(4.370370370370367 37.333333333333336)"/><use xlink:href="#f" transform="matrix(1,0,0,1,735,738) translate(33.925925925925924 37.333333333333336)"/><use xlink:href="#g" transform="matrix(1,0,0,1,735,738) translate(64.2962962962963 37.333333333333336)"/><use xlink:href="#h" transform="matrix(1,0,0,1,735,738) translate(107.18518518518519 37.333333333333336)"/><use xlink:href="#i" transform="matrix(1,0,0,1,735,738) translate(130.14814814814815 37.333333333333336)"/><path d="M820 661.32v52.18" stroke="#000" stroke-width="2" fill="none"/><path d="M820 660l1-.86v2.18h-2v-2.18z"/><path d="M820 728.76l-4.64-14.26h9.28z" stroke="#000" stroke-width="2"/><use xlink:href="#j" transform="matrix(1,0,0,1,828,683.3252055564733) translate(0 17.77777777777778)"/><path d="M820 880l70 60-70 60-70-60z" stroke="#000" stroke-width="2" fill="#fff"/><use xlink:href="#e" transform="matrix(1,0,0,1,755,885) translate(32.07407407407407 60.333333333333336)"/><use xlink:href="#k" transform="matrix(1,0,0,1,755,885) translate(61.62962962962963 60.333333333333336)"/><use xlink:href="#l" transform="matrix(1,0,0,1,755,885) translate(84.5925925925926 60.333333333333336)"/><path d="M820 808v52.18" stroke="#000" stroke-width="2" fill="none"/><path d="M821 808h-2v-1h2z"/><path d="M820 875.45l-4.64-14.27h9.28z" stroke="#000" stroke-width="2"/><path d="M820 1001.32v35.86" stroke="#000" stroke-width="2" fill="none"/><path d="M820 1000l1-.86v2.18h-2v-2.18z"/><path d="M820 1052.45l-4.64-14.27h9.28z" stroke="#000" stroke-width="2"/><use xlink:href="#m" transform="matrix(1,0,0,1,757.8024691358025,1019.217682705315) translate(0 17.77777777777778)"/><path d="M820 1057l70 60-70 60-70-60z" stroke="#000" stroke-width="2" fill="#fff"/><use xlink:href="#e" transform="matrix(1,0,0,1,755,1062) translate(32.07407407407407 60.333333333333336)"/><use xlink:href="#n" transform="matrix(1,0,0,1,755,1062) translate(61.62962962962963 60.333333333333336)"/><use xlink:href="#l" transform="matrix(1,0,0,1,755,1062) translate(84.5925925925926 60.333333333333336)"/><path d="M730 1240h180v74H730z" stroke="#000" stroke-width="2" fill="#fff"/><g><use xlink:href="#b" transform="matrix(1,0,0,1,735,1245) translate(37.66666666666666 37.333333333333336)"/><use xlink:href="#f" transform="matrix(1,0,0,1,735,1245) translate(50.92592592592592 37.333333333333336)"/><use xlink:href="#o" transform="matrix(1,0,0,1,735,1245) translate(81.29629629629629 37.333333333333336)"/><use xlink:href="#h" transform="matrix(1,0,0,1,735,1245) translate(94.55555555555554 37.333333333333336)"/><use xlink:href="#p" transform="matrix(1,0,0,1,735,1245) translate(117.51851851851852 37.333333333333336)"/></g><path d="M820 1178.32v42.18" stroke="#000" stroke-width="2" fill="none"/><path d="M820 1177l1-.86v2.18h-2v-2.18z"/><path d="M820 1235.76l-4.64-14.26h9.28z" stroke="#000" stroke-width="2"/><g><use xlink:href="#j" transform="matrix(1,0,0,1,767.2469135802469,1195.3252055564733) translate(0 17.77777777777778)"/></g><path d="M729 1277h-50V420h21.5" stroke="#000" stroke-width="2" fill="none"/><path d="M730 1278h-1v-2h1z"/><path d="M715.76 420l-14.26 4.64v-9.28z" stroke="#000" stroke-width="2"/><defs><path d="M198-261c85 0 136 45 136 128 0 61-22 111-78 115-29 2-39-18-37-44-12 23-32 44-66 44-41 0-58-28-58-68 0-60 30-105 88-108 29-1 43 15 54 32l7-28h28c-9 45-23 84-27 134-1 11 6 17 14 16 39-4 51-48 51-92 0-69-42-107-112-107-93 0-145 59-145 153C53-15 94 26 168 27c43 0 78-13 106-28l9 19c-30 18-67 32-115 32C79 50 28-1 28-86c0-107 62-175 170-175zM158-41c46 0 70-43 70-90 0-26-17-40-43-40-44 0-59 41-61 85-1 26 9 45 34 45" id="q"/><path d="M30 0v-248h33v221h125V0H30" id="r"/><g id="a"><use transform="matrix(0.07407407407407408,0,0,0.07407407407407408,0,0)" xlink:href="#q"/><use transform="matrix(0.07407407407407408,0,0,0.07407407407407408,27.03703703703704,0)" xlink:href="#r"/></g><path d="M24-231v-30h32v30H24zM24 0v-190h32V0H24" id="s"/><use transform="matrix(0.07407407407407408,0,0,0.07407407407407408,0,0)" xlink:href="#s" id="b"/><path d="M18-100v-36l175-74v27L42-118l151 64v27" id="t"/><path d="M18-150v-26h174v26H18zm0 90v-26h174v26H18" id="u"/><g id="c"><use transform="matrix(0.07407407407407408,0,0,0.07407407407407408,0,0)" xlink:href="#t"/><use transform="matrix(0.07407407407407408,0,0,0.07407407407407408,15.555555555555557,0)" xlink:href="#u"/></g><path d="M24-231v-30h32v30H24zM-9 49c24 4 33-6 33-30v-209h32V24c2 40-23 58-65 49V49" id="v"/><use transform="matrix(0.07407407407407408,0,0,0.07407407407407408,0,0)" xlink:href="#v" id="d"/><path d="M210-169c-67 3-38 105-44 169h-31v-121c0-29-5-50-35-48C34-165 62-65 56 0H25l-1-190h30c1 10-1 24 2 32 10-44 99-50 107 0 11-21 27-35 58-36 85-2 47 119 55 194h-31v-121c0-29-5-49-35-48" id="w"/><use transform="matrix(0.07407407407407408,0,0,0.07407407407407408,0,0)" xlink:href="#w" id="e"/><path d="M33-154v-36h34v36H33zM33 0v-36h34V0H33" id="x"/><g id="f"><use transform="matrix(0.07407407407407408,0,0,0.07407407407407408,0,0)" xlink:href="#x"/><use transform="matrix(0.07407407407407408,0,0,0.07407407407407408,7.407407407407408,0)" xlink:href="#u"/></g><path d="M141-36C126-15 110 5 73 4 37 3 15-17 15-53c-1-64 63-63 125-63 3-35-9-54-41-54-24 1-41 7-42 31l-33-3c5-37 33-52 76-52 45 0 72 20 72 64v82c-1 20 7 32 28 27v20c-31 9-61-2-59-35zM48-53c0 20 12 33 32 33 41-3 63-29 60-74-43 2-92-5-92 41" id="y"/><path d="M26 75v-336h71v23H56V52h41v23H26" id="z"/><path d="M3 75V52h41v-290H3v-23h71V75H3" id="A"/><g id="g"><use transform="matrix(0.07407407407407408,0,0,0.07407407407407408,0,0)" xlink:href="#y"/><use transform="matrix(0.07407407407407408,0,0,0.07407407407407408,14.814814814814817,0)" xlink:href="#z"/><use transform="matrix(0.07407407407407408,0,0,0.07407407407407408,22.222222222222225,0)" xlink:href="#s"/><use transform="matrix(0.07407407407407408,0,0,0.07407407407407408,28.074074074074076,0)" xlink:href="#A"/></g><path d="M118-107v75H92v-75H18v-26h74v-75h26v75h74v26h-74" id="B"/><use transform="matrix(0.07407407407407408,0,0,0.07407407407407408,0,0)" xlink:href="#B" id="h"/><g id="i"><use transform="matrix(0.07407407407407408,0,0,0.07407407407407408,0,0)" xlink:href="#y"/><use transform="matrix(0.07407407407407408,0,0,0.07407407407407408,14.814814814814817,0)" xlink:href="#z"/><use transform="matrix(0.07407407407407408,0,0,0.07407407407407408,22.222222222222225,0)" xlink:href="#v"/><use transform="matrix(0.07407407407407408,0,0,0.07407407407407408,28.074074074074076,0)" xlink:href="#A"/></g><path d="M127-220V0H93v-220H8v-28h204v28h-85" id="C"/><path d="M114-163C36-179 61-72 57 0H25l-1-190h30c1 12-1 29 2 39 6-27 23-49 58-41v29" id="D"/><path d="M84 4C-5 8 30-112 23-190h32v120c0 31 7 50 39 49 72-2 45-101 50-169h31l1 190h-30c-1-10 1-25-2-33-11 22-28 36-60 37" id="E"/><path d="M100-194c63 0 86 42 84 106H49c0 40 14 67 53 68 26 1 43-12 49-29l28 8c-11 28-37 45-77 45C44 4 14-33 15-96c1-61 26-98 85-98zm52 81c6-60-76-77-97-28-3 7-6 17-6 28h103" id="F"/><g id="j"><use transform="matrix(0.06172839506172839,0,0,0.06172839506172839,0,0)" xlink:href="#C"/><use transform="matrix(0.06172839506172839,0,0,0.06172839506172839,12.716049382716047,0)" xlink:href="#D"/><use transform="matrix(0.06172839506172839,0,0,0.06172839506172839,20.061728395061728,0)" xlink:href="#E"/><use transform="matrix(0.06172839506172839,0,0,0.06172839506172839,32.407407407407405,0)" xlink:href="#F"/></g><path d="M18-27v-27l151-64-151-65v-27l175 74v36" id="G"/><use transform="matrix(0.07407407407407408,0,0,0.07407407407407408,0,0)" xlink:href="#G" id="k"/><path d="M135-143c-3-34-86-38-87 0 15 53 115 12 119 90S17 21 10-45l28-5c4 36 97 45 98 0-10-56-113-15-118-90-4-57 82-63 122-42 12 7 21 19 24 35" id="H"/><use transform="matrix(0.07407407407407408,0,0,0.07407407407407408,0,0)" xlink:href="#H" id="l"/><path d="M63-220v92h138v28H63V0H30v-248h175v28H63" id="I"/><path d="M24 0v-261h32V0H24" id="J"/><g id="m"><use transform="matrix(0.06172839506172839,0,0,0.06172839506172839,0,0)" xlink:href="#I"/><use transform="matrix(0.06172839506172839,0,0,0.06172839506172839,13.518518518518517,0)" xlink:href="#y"/><use transform="matrix(0.06172839506172839,0,0,0.06172839506172839,25.864197530864196,0)" xlink:href="#J"/><use transform="matrix(0.06172839506172839,0,0,0.06172839506172839,30.74074074074074,0)" xlink:href="#H"/><use transform="matrix(0.06172839506172839,0,0,0.06172839506172839,41.85185185185185,0)" xlink:href="#F"/></g><use transform="matrix(0.07407407407407408,0,0,0.07407407407407408,0,0)" xlink:href="#t" id="n"/><use transform="matrix(0.07407407407407408,0,0,0.07407407407407408,0,0)" xlink:href="#s" id="o"/><path d="M27 0v-27h64v-190l-56 39v-29l58-41h29v221h61V0H27" id="K"/><use transform="matrix(0.07407407407407408,0,0,0.07407407407407408,0,0)" xlink:href="#K" id="p"/></defs></g></svg>